<svg xmlns="http://www.w3.org/2000/svg" version="1.1" xmlns:xlink="http://www.w3.org/1999/xlink" xmlns:svgjs="http://svgjs.dev/svgjs" width="1080" height="1920" preserveAspectRatio="none" viewBox="0 0 1080 1920"><g mask="url(&quot;#SvgjsMask1270&quot;)" fill="none"><rect width="1080" height="1920" x="0" y="0" fill="rgba(50, 121, 219, 0.02)"></rect><path d="M1080 0L983.56 0L1080 958.53z" fill="rgba(255, 255, 255, .1)"></path><path d="M983.56 0L1080 958.53L1080 1013.63L737.16 0z" fill="rgba(255, 255, 255, .075)"></path><path d="M737.16 0L1080 1013.63L1080 1383.47L412.09999999999997 0z" fill="rgba(255, 255, 255, .05)"></path><path d="M412.0999999999999 0L1080 1383.47L1080 1564.24L331.8799999999999 0z" fill="rgba(255, 255, 255, .025)"></path><path d="M0 1920L20.67 1920L0 1531.1z" fill="rgba(0, 0, 0, .1)"></path><path d="M0 1531.1L20.67 1920L569.25 1920L0 902.9699999999999z" fill="rgba(0, 0, 0, .075)"></path><path d="M0 902.97L569.25 1920L786.53 1920L0 861.27z" fill="rgba(0, 0, 0, .05)"></path><path d="M0 861.27L786.53 1920L983.66 1920L0 293.28999999999996z" fill="rgba(0, 0, 0, .025)"></path></g><defs><mask id="SvgjsMask1270"><rect width="1080" height="1920" fill="#ffffff"></rect></mask></defs></svg>