<?xml version="1.0" encoding="UTF-8"?>
<!DOCTYPE svg PUBLIC "-//W3C//DTD SVG 1.1//EN" "http://www.w3.org/Graphics/SVG/1.1/DTD/svg11.dtd">
<!-- Creator: CorelDRAW 2019 (64-Bit) -->
<svg xmlns="http://www.w3.org/2000/svg" xml:space="preserve" width="2.96012in" height="4.1496in" version="1.1" style="shape-rendering:geometricPrecision; text-rendering:geometricPrecision; image-rendering:optimizeQuality; fill-rule:evenodd; clip-rule:evenodd"
viewBox="0 0 18436.55 25845.02"
 xmlns:xlink="http://www.w3.org/1999/xlink"
 xmlns:xodm="http://www.corel.com/coreldraw/odm/2003">
 <defs>
  <style type="text/css">
   <![CDATA[
    .fil0 {fill:url(#id0)}
   ]]>
  </style>
  <linearGradient id="id0" gradientUnits="userSpaceOnUse" x1="9146.48" y1="2085.38" x2="9236.03" y2="25620.21">
   <stop offset="0" style="stop-opacity:1; stop-color:#E58803"/>
   <stop offset="1" style="stop-opacity:1; stop-color:#181717"/>
  </linearGradient>
 </defs>
 <g id="Layer_x0020_1">
  <metadata id="CorelCorpID_0Corel-Layer"/>
  <path class="fil0" d="M3721.42 11760.14c-6.01,-1131 -145.38,-1812.39 -635.44,-2661.48 -337.8,-585.34 -1110.8,-1450.78 -1649.13,-1702.15 358.2,2864.31 55.1,2590.71 -829.69,5552.96 -751.86,2517.12 -966.2,6136.9 299.69,8620.85 647.62,1270.72 870.44,1270.45 1486.31,1975.21 671.04,767.92 3023.6,2205.68 4560.7,2256.22 -706.6,-885.48 -1371.95,-1125.61 -1928.67,-2897.07 -328.83,-1046.26 -604.12,-3417.02 129.4,-4191.14 322.92,730.36 380.3,1561.86 1414.98,2114.27 -202.44,-2272.26 -201.64,-4655.99 1402.72,-6485.42 307.03,-350.09 1016.66,-1122.08 1527.34,-1291.84 -123.54,1514.22 24.67,2597.92 777.44,3645.21 594.68,827.34 1406.32,1552.84 1838.19,2575.65 661.01,1565.51 573.99,3954.49 -403.81,5390.14 -294.55,432.45 -579.14,849.01 -980.08,1183.06 1408.9,28.84 3935.46,-1569.12 4584.34,-2251.34 1253.04,-1317.39 2136.21,-2146.37 2711.13,-4301.76 741.46,-2779.89 483.36,-6180.11 -829.79,-8732.74 -187.07,-363.67 -951.24,-1738.14 -1275.63,-2020.7 -110.83,-96.54 -35.16,-35.68 -178.41,-126.36 86.41,1176.91 229.07,1997.94 45.81,3194.29 -106,692.01 -497.58,2173.81 -1004.87,2434.68 -315.14,-5212.61 -3176.96,-6094.73 -5059.36,-9936.1 -755.27,-1541.26 -697.06,-2429.44 -262.55,-4104.61 -890.8,149.04 -2089.11,1308.17 -2530.78,1798.83 -1907.75,2119.42 -1279.13,5063.67 -1740.96,7071.15 -219.34,953.45 -828.95,2524.53 -1468.88,2890.16z"/>
 </g>
</svg>
